<?xml version="1.0" encoding="UTF-8"?>
<svg xmlns="http://www.w3.org/2000/svg" xmlns:xlink="http://www.w3.org/1999/xlink" width="50px" height="50px" viewBox="0 0 50 50" version="1.1">
<defs>
<linearGradient id="linear0" gradientUnits="userSpaceOnUse" x1="512.001" y1="0.978" x2="512.001" y2="1025.023" gradientTransform="matrix(0.0488281,0,0,0.0488281,0,0)">
<stop offset="0" style="stop-color:rgb(38.039216%,99.215686%,49.019608%);stop-opacity:1;"/>
<stop offset="1" style="stop-color:rgb(16.862745%,72.156863%,14.901961%);stop-opacity:1;"/>
</linearGradient>
</defs>
<g id="surface1">
<path style=" stroke:none;fill-rule:nonzero;fill:url(#linear0);" d="M 49.996094 37.359375 C 49.996094 37.632812 49.988281 38.226562 49.972656 38.6875 C 49.933594 39.808594 49.84375 41.257812 49.707031 41.917969 C 49.507812 42.910156 49.199219 43.84375 48.804688 44.625 C 48.332031 45.542969 47.730469 46.371094 47.019531 47.082031 C 46.304688 47.792969 45.480469 48.390625 44.5625 48.859375 C 43.777344 49.257812 42.835938 49.566406 41.839844 49.765625 C 41.1875 49.898438 39.75 49.984375 38.632812 50.023438 C 38.175781 50.042969 37.582031 50.050781 37.308594 50.050781 L 12.6875 50.046875 C 12.414062 50.046875 11.820312 50.039062 11.363281 50.019531 C 10.238281 49.980469 8.792969 49.890625 8.132812 49.757812 C 7.140625 49.554688 6.203125 49.25 5.425781 48.851562 C 4.503906 48.382812 3.679688 47.78125 2.964844 47.066406 C 2.253906 46.355469 1.65625 45.53125 1.1875 44.609375 C 0.789062 43.828125 0.484375 42.886719 0.28125 41.886719 C 0.152344 41.234375 0.0625 39.796875 0.0234375 38.683594 C 0.0078125 38.222656 0 37.628906 0 37.355469 L 0.00390625 12.738281 C 0.00390625 12.464844 0.0117188 11.871094 0.0273438 11.410156 C 0.0664062 10.289062 0.15625 8.839844 0.292969 8.179688 C 0.492188 7.1875 0.800781 6.253906 1.195312 5.472656 C 1.667969 4.554688 2.269531 3.726562 2.980469 3.015625 C 3.695312 2.304688 4.519531 1.707031 5.4375 1.238281 C 6.222656 0.835938 7.164062 0.53125 8.160156 0.332031 C 8.8125 0.199219 10.25 0.113281 11.367188 0.0742188 C 11.824219 0.0546875 12.417969 0.046875 12.691406 0.046875 L 37.3125 0.0507812 C 37.585938 0.0507812 38.179688 0.0585938 38.636719 0.078125 C 39.761719 0.117188 41.207031 0.207031 41.867188 0.339844 C 42.859375 0.542969 43.796875 0.847656 44.574219 1.246094 C 45.496094 1.714844 46.320312 2.316406 47.035156 3.03125 C 47.746094 3.742188 48.34375 4.566406 48.8125 5.488281 C 49.210938 6.269531 49.515625 7.210938 49.71875 8.210938 C 49.847656 8.863281 49.9375 10.300781 49.976562 11.414062 C 49.992188 11.875 50 12.46875 50 12.742188 Z M 49.996094 37.359375 "/>
<path style=" stroke:none;fill-rule:nonzero;fill:rgb(100%,100%,100%);fill-opacity:1;" d="M 38.246094 11.878906 C 34.863281 8.488281 30.359375 6.621094 25.5625 6.621094 C 15.679688 6.621094 7.636719 14.660156 7.632812 24.542969 C 7.632812 27.703125 8.457031 30.785156 10.027344 33.503906 L 7.484375 42.792969 L 16.988281 40.300781 C 19.605469 41.730469 22.554688 42.480469 25.554688 42.484375 L 25.5625 42.484375 C 35.445312 42.484375 43.488281 34.441406 43.492188 24.558594 C 43.496094 19.769531 41.632812 15.265625 38.246094 11.878906 Z M 25.5625 39.457031 L 25.558594 39.457031 C 22.882812 39.453125 20.261719 38.734375 17.972656 37.378906 L 17.429688 37.054688 L 11.789062 38.535156 L 13.292969 33.039062 L 12.9375 32.472656 C 11.445312 30.101562 10.660156 27.359375 10.660156 24.546875 C 10.664062 16.332031 17.347656 9.648438 25.570312 9.648438 C 29.550781 9.648438 33.292969 11.199219 36.105469 14.015625 C 38.917969 16.832031 40.46875 20.578125 40.464844 24.558594 C 40.464844 32.773438 33.777344 39.457031 25.5625 39.457031 Z M 33.738281 28.296875 C 33.289062 28.074219 31.085938 26.988281 30.675781 26.839844 C 30.265625 26.691406 29.96875 26.617188 29.667969 27.066406 C 29.371094 27.511719 28.511719 28.523438 28.25 28.820312 C 27.988281 29.121094 27.726562 29.15625 27.28125 28.933594 C 26.832031 28.707031 25.386719 28.234375 23.675781 26.710938 C 22.34375 25.523438 21.445312 24.054688 21.183594 23.605469 C 20.921875 23.160156 21.15625 22.917969 21.378906 22.691406 C 21.582031 22.492188 21.828125 22.167969 22.054688 21.910156 C 22.277344 21.648438 22.351562 21.460938 22.5 21.160156 C 22.648438 20.863281 22.574219 20.601562 22.464844 20.375 C 22.351562 20.152344 21.457031 17.949219 21.082031 17.050781 C 20.71875 16.175781 20.347656 16.296875 20.074219 16.28125 C 19.8125 16.269531 19.515625 16.265625 19.214844 16.265625 C 18.917969 16.265625 18.429688 16.378906 18.019531 16.828125 C 17.609375 17.273438 16.453125 18.359375 16.453125 20.5625 C 16.453125 22.769531 18.058594 24.898438 18.28125 25.195312 C 18.507812 25.496094 21.441406 30.019531 25.933594 31.960938 C 27.003906 32.421875 27.839844 32.695312 28.488281 32.902344 C 29.5625 33.242188 30.539062 33.195312 31.3125 33.078125 C 32.171875 32.953125 33.960938 31.996094 34.335938 30.949219 C 34.707031 29.902344 34.707031 29.007812 34.597656 28.820312 C 34.484375 28.632812 34.1875 28.523438 33.738281 28.296875 Z M 33.738281 28.296875 "/>
</g>
</svg>
